<mxfile host="app.diagrams.net" modified="2024-06-01T08:46:48.108Z" agent="Mozilla/5.0 (Macintosh; Intel Mac OS X 10_15_7) AppleWebKit/605.1.15 (KHTML, like Gecko) Version/17.5 Safari/605.1.15" etag="uY3tLTDks2t4hP0AzJDi" version="24.4.9" type="device">
  <diagram name="페이지-1" id="kTxHLPrTkegDMbKhw0Za">
    <mxGraphModel dx="1224" dy="816" grid="1" gridSize="10" guides="1" tooltips="1" connect="1" arrows="1" fold="1" page="1" pageScale="1" pageWidth="1169" pageHeight="1654" math="0" shadow="0">
      <root>
        <mxCell id="0" />
        <mxCell id="1" parent="0" />
        <mxCell id="8HF2tz-6oqBhK90V2NST-5" style="rounded=0;orthogonalLoop=1;jettySize=auto;html=1;exitX=0.5;exitY=0.5;exitDx=0;exitDy=0;exitPerimeter=0;entryX=0;entryY=0.5;entryDx=0;entryDy=0;endArrow=none;endFill=0;" edge="1" parent="1" source="T_pyh8g8CapDt7LugDOk-1" target="T_pyh8g8CapDt7LugDOk-13">
          <mxGeometry relative="1" as="geometry" />
        </mxCell>
        <mxCell id="8HF2tz-6oqBhK90V2NST-7" style="rounded=0;orthogonalLoop=1;jettySize=auto;html=1;exitX=0.5;exitY=0.5;exitDx=0;exitDy=0;exitPerimeter=0;entryX=0;entryY=0.5;entryDx=0;entryDy=0;endArrow=none;endFill=0;" edge="1" parent="1" source="T_pyh8g8CapDt7LugDOk-1" target="T_pyh8g8CapDt7LugDOk-19">
          <mxGeometry relative="1" as="geometry" />
        </mxCell>
        <mxCell id="8HF2tz-6oqBhK90V2NST-25" style="rounded=0;orthogonalLoop=1;jettySize=auto;html=1;exitX=0.5;exitY=0.5;exitDx=0;exitDy=0;exitPerimeter=0;entryX=0;entryY=0.5;entryDx=0;entryDy=0;endArrow=none;endFill=0;" edge="1" parent="1" source="T_pyh8g8CapDt7LugDOk-1" target="8HF2tz-6oqBhK90V2NST-24">
          <mxGeometry relative="1" as="geometry" />
        </mxCell>
        <mxCell id="T_pyh8g8CapDt7LugDOk-1" value="Admin" style="shape=umlActor;verticalLabelPosition=bottom;verticalAlign=top;html=1;outlineConnect=0;" parent="1" vertex="1">
          <mxGeometry x="34" y="532" width="30" height="60" as="geometry" />
        </mxCell>
        <mxCell id="8HF2tz-6oqBhK90V2NST-8" style="rounded=0;orthogonalLoop=1;jettySize=auto;html=1;exitX=0.5;exitY=0.5;exitDx=0;exitDy=0;exitPerimeter=0;entryX=1;entryY=0.5;entryDx=0;entryDy=0;endArrow=none;endFill=0;" edge="1" parent="1" source="T_pyh8g8CapDt7LugDOk-3" target="T_pyh8g8CapDt7LugDOk-36">
          <mxGeometry relative="1" as="geometry" />
        </mxCell>
        <mxCell id="8HF2tz-6oqBhK90V2NST-26" style="rounded=0;orthogonalLoop=1;jettySize=auto;html=1;exitX=0.5;exitY=0.5;exitDx=0;exitDy=0;exitPerimeter=0;entryX=1;entryY=0.5;entryDx=0;entryDy=0;endArrow=none;endFill=0;" edge="1" parent="1" source="T_pyh8g8CapDt7LugDOk-3" target="8HF2tz-6oqBhK90V2NST-24">
          <mxGeometry relative="1" as="geometry" />
        </mxCell>
        <mxCell id="8HF2tz-6oqBhK90V2NST-41" style="rounded=0;orthogonalLoop=1;jettySize=auto;html=1;exitX=0.5;exitY=0.5;exitDx=0;exitDy=0;exitPerimeter=0;entryX=1;entryY=0.5;entryDx=0;entryDy=0;endArrow=none;endFill=0;" edge="1" parent="1" source="T_pyh8g8CapDt7LugDOk-3" target="T_pyh8g8CapDt7LugDOk-26">
          <mxGeometry relative="1" as="geometry" />
        </mxCell>
        <mxCell id="8HF2tz-6oqBhK90V2NST-55" style="rounded=0;orthogonalLoop=1;jettySize=auto;html=1;exitX=0.5;exitY=0.5;exitDx=0;exitDy=0;exitPerimeter=0;endArrow=none;endFill=0;entryX=1;entryY=0.5;entryDx=0;entryDy=0;" edge="1" parent="1" source="T_pyh8g8CapDt7LugDOk-3" target="T_pyh8g8CapDt7LugDOk-23">
          <mxGeometry relative="1" as="geometry">
            <mxPoint x="680" y="690" as="targetPoint" />
          </mxGeometry>
        </mxCell>
        <mxCell id="8HF2tz-6oqBhK90V2NST-61" style="rounded=0;orthogonalLoop=1;jettySize=auto;html=1;exitX=0.5;exitY=0.5;exitDx=0;exitDy=0;exitPerimeter=0;entryX=1;entryY=0.5;entryDx=0;entryDy=0;endArrow=none;endFill=0;" edge="1" parent="1" source="T_pyh8g8CapDt7LugDOk-3" target="T_pyh8g8CapDt7LugDOk-29">
          <mxGeometry relative="1" as="geometry" />
        </mxCell>
        <mxCell id="T_pyh8g8CapDt7LugDOk-3" value="PL" style="shape=umlActor;verticalLabelPosition=bottom;verticalAlign=top;html=1;outlineConnect=0;" parent="1" vertex="1">
          <mxGeometry x="1010" y="252" width="30" height="60" as="geometry" />
        </mxCell>
        <mxCell id="8HF2tz-6oqBhK90V2NST-28" style="rounded=0;orthogonalLoop=1;jettySize=auto;html=1;exitX=0.5;exitY=0.5;exitDx=0;exitDy=0;exitPerimeter=0;entryX=1;entryY=0.5;entryDx=0;entryDy=0;endArrow=none;endFill=0;" edge="1" parent="1" source="T_pyh8g8CapDt7LugDOk-4" target="8HF2tz-6oqBhK90V2NST-24">
          <mxGeometry relative="1" as="geometry" />
        </mxCell>
        <mxCell id="8HF2tz-6oqBhK90V2NST-39" style="rounded=0;orthogonalLoop=1;jettySize=auto;html=1;exitX=0.5;exitY=0.5;exitDx=0;exitDy=0;exitPerimeter=0;entryX=1;entryY=0.5;entryDx=0;entryDy=0;endArrow=none;endFill=0;" edge="1" parent="1" source="T_pyh8g8CapDt7LugDOk-4" target="T_pyh8g8CapDt7LugDOk-26">
          <mxGeometry relative="1" as="geometry" />
        </mxCell>
        <mxCell id="8HF2tz-6oqBhK90V2NST-56" style="rounded=0;orthogonalLoop=1;jettySize=auto;html=1;exitX=0.5;exitY=0.5;exitDx=0;exitDy=0;exitPerimeter=0;entryX=1;entryY=0.5;entryDx=0;entryDy=0;endArrow=none;endFill=0;" edge="1" parent="1" source="T_pyh8g8CapDt7LugDOk-4" target="T_pyh8g8CapDt7LugDOk-23">
          <mxGeometry relative="1" as="geometry" />
        </mxCell>
        <mxCell id="8HF2tz-6oqBhK90V2NST-62" style="rounded=0;orthogonalLoop=1;jettySize=auto;html=1;exitX=0.5;exitY=0.5;exitDx=0;exitDy=0;exitPerimeter=0;entryX=1;entryY=0.5;entryDx=0;entryDy=0;endArrow=none;endFill=0;" edge="1" parent="1" source="T_pyh8g8CapDt7LugDOk-4" target="T_pyh8g8CapDt7LugDOk-29">
          <mxGeometry relative="1" as="geometry" />
        </mxCell>
        <mxCell id="T_pyh8g8CapDt7LugDOk-4" value="dev" style="shape=umlActor;verticalLabelPosition=bottom;verticalAlign=top;html=1;outlineConnect=0;" parent="1" vertex="1">
          <mxGeometry x="1010" y="920" width="30" height="60" as="geometry" />
        </mxCell>
        <mxCell id="8HF2tz-6oqBhK90V2NST-27" style="rounded=0;orthogonalLoop=1;jettySize=auto;html=1;exitX=0.5;exitY=0.5;exitDx=0;exitDy=0;exitPerimeter=0;entryX=1;entryY=0.5;entryDx=0;entryDy=0;endArrow=none;endFill=0;" edge="1" parent="1" source="T_pyh8g8CapDt7LugDOk-9" target="8HF2tz-6oqBhK90V2NST-24">
          <mxGeometry relative="1" as="geometry" />
        </mxCell>
        <mxCell id="8HF2tz-6oqBhK90V2NST-40" style="rounded=0;orthogonalLoop=1;jettySize=auto;html=1;exitX=0.5;exitY=0.5;exitDx=0;exitDy=0;exitPerimeter=0;entryX=1;entryY=0.5;entryDx=0;entryDy=0;endArrow=none;endFill=0;" edge="1" parent="1" source="T_pyh8g8CapDt7LugDOk-9" target="T_pyh8g8CapDt7LugDOk-26">
          <mxGeometry relative="1" as="geometry" />
        </mxCell>
        <mxCell id="8HF2tz-6oqBhK90V2NST-45" style="rounded=0;orthogonalLoop=1;jettySize=auto;html=1;exitX=0.5;exitY=0.5;exitDx=0;exitDy=0;exitPerimeter=0;entryX=1;entryY=0.5;entryDx=0;entryDy=0;endArrow=none;endFill=0;" edge="1" parent="1" source="T_pyh8g8CapDt7LugDOk-9" target="T_pyh8g8CapDt7LugDOk-22">
          <mxGeometry relative="1" as="geometry" />
        </mxCell>
        <mxCell id="8HF2tz-6oqBhK90V2NST-54" style="rounded=0;orthogonalLoop=1;jettySize=auto;html=1;exitX=0.5;exitY=0.5;exitDx=0;exitDy=0;exitPerimeter=0;entryX=1;entryY=0.5;entryDx=0;entryDy=0;endArrow=none;endFill=0;" edge="1" parent="1" source="T_pyh8g8CapDt7LugDOk-9" target="T_pyh8g8CapDt7LugDOk-23">
          <mxGeometry relative="1" as="geometry" />
        </mxCell>
        <mxCell id="8HF2tz-6oqBhK90V2NST-60" style="rounded=0;orthogonalLoop=1;jettySize=auto;html=1;exitX=0.5;exitY=0.5;exitDx=0;exitDy=0;exitPerimeter=0;entryX=1;entryY=0.5;entryDx=0;entryDy=0;endArrow=none;endFill=0;" edge="1" parent="1" source="T_pyh8g8CapDt7LugDOk-9" target="T_pyh8g8CapDt7LugDOk-29">
          <mxGeometry relative="1" as="geometry" />
        </mxCell>
        <mxCell id="T_pyh8g8CapDt7LugDOk-9" value="tester" style="shape=umlActor;verticalLabelPosition=bottom;verticalAlign=top;html=1;outlineConnect=0;" parent="1" vertex="1">
          <mxGeometry x="1010" y="592" width="30" height="60" as="geometry" />
        </mxCell>
        <mxCell id="T_pyh8g8CapDt7LugDOk-13" value="계정 생성" style="ellipse;whiteSpace=wrap;html=1;" parent="1" vertex="1">
          <mxGeometry x="174" y="410" width="120" height="60" as="geometry" />
        </mxCell>
        <mxCell id="T_pyh8g8CapDt7LugDOk-19" value="프로젝트 생성" style="ellipse;whiteSpace=wrap;html=1;" parent="1" vertex="1">
          <mxGeometry x="174" y="652" width="120" height="60" as="geometry" />
        </mxCell>
        <mxCell id="T_pyh8g8CapDt7LugDOk-22" value="이슈 생성" style="ellipse;whiteSpace=wrap;html=1;" parent="1" vertex="1">
          <mxGeometry x="800" y="450" width="120" height="60" as="geometry" />
        </mxCell>
        <mxCell id="T_pyh8g8CapDt7LugDOk-23" value="이슈 코멘트 작성" style="ellipse;whiteSpace=wrap;html=1;" parent="1" vertex="1">
          <mxGeometry x="800" y="660" width="120" height="60" as="geometry" />
        </mxCell>
        <mxCell id="T_pyh8g8CapDt7LugDOk-26" value="이슈 검색" style="ellipse;whiteSpace=wrap;html=1;" parent="1" vertex="1">
          <mxGeometry x="374" y="652" width="120" height="60" as="geometry" />
        </mxCell>
        <mxCell id="T_pyh8g8CapDt7LugDOk-29" value="이슈 상태 변경" style="ellipse;whiteSpace=wrap;html=1;" parent="1" vertex="1">
          <mxGeometry x="374" y="410" width="120" height="60" as="geometry" />
        </mxCell>
        <mxCell id="T_pyh8g8CapDt7LugDOk-30" value="상세 정보 확인" style="ellipse;whiteSpace=wrap;html=1;" parent="1" vertex="1">
          <mxGeometry x="374" y="800" width="120" height="60" as="geometry" />
        </mxCell>
        <mxCell id="T_pyh8g8CapDt7LugDOk-36" value="담당자 배정" style="ellipse;whiteSpace=wrap;html=1;" parent="1" vertex="1">
          <mxGeometry x="374" y="252" width="120" height="60" as="geometry" />
        </mxCell>
        <mxCell id="8HF2tz-6oqBhK90V2NST-24" value="로그인" style="ellipse;whiteSpace=wrap;html=1;" vertex="1" parent="1">
          <mxGeometry x="374" y="532" width="120" height="60" as="geometry" />
        </mxCell>
        <mxCell id="8HF2tz-6oqBhK90V2NST-32" value="" style="endArrow=classic;html=1;rounded=0;exitX=0.5;exitY=0;exitDx=0;exitDy=0;entryX=0.5;entryY=1;entryDx=0;entryDy=0;dashed=1;" edge="1" parent="1" source="T_pyh8g8CapDt7LugDOk-30" target="T_pyh8g8CapDt7LugDOk-26">
          <mxGeometry relative="1" as="geometry">
            <mxPoint x="444" y="332" as="sourcePoint" />
            <mxPoint x="444" y="422" as="targetPoint" />
          </mxGeometry>
        </mxCell>
        <mxCell id="8HF2tz-6oqBhK90V2NST-33" value="&amp;lt;&amp;lt; extend &amp;gt;&amp;gt;" style="edgeLabel;resizable=0;html=1;;align=center;verticalAlign=middle;" connectable="0" vertex="1" parent="8HF2tz-6oqBhK90V2NST-32">
          <mxGeometry relative="1" as="geometry" />
        </mxCell>
        <mxCell id="8HF2tz-6oqBhK90V2NST-34" value="" style="endArrow=classic;html=1;rounded=0;dashed=1;exitX=0;exitY=0.5;exitDx=0;exitDy=0;entryX=1;entryY=0.5;entryDx=0;entryDy=0;" edge="1" parent="1" source="T_pyh8g8CapDt7LugDOk-23" target="T_pyh8g8CapDt7LugDOk-30">
          <mxGeometry relative="1" as="geometry">
            <mxPoint x="560" y="810" as="sourcePoint" />
            <mxPoint x="590" y="920" as="targetPoint" />
          </mxGeometry>
        </mxCell>
        <mxCell id="8HF2tz-6oqBhK90V2NST-35" value="&amp;lt;&amp;lt; include &amp;gt;&amp;gt;" style="edgeLabel;resizable=0;html=1;;align=center;verticalAlign=middle;" connectable="0" vertex="1" parent="8HF2tz-6oqBhK90V2NST-34">
          <mxGeometry relative="1" as="geometry" />
        </mxCell>
        <mxCell id="8HF2tz-6oqBhK90V2NST-58" value="" style="endArrow=classic;html=1;rounded=0;exitX=0;exitY=0.5;exitDx=0;exitDy=0;entryX=0;entryY=0.5;entryDx=0;entryDy=0;dashed=1;edgeStyle=orthogonalEdgeStyle;" edge="1" parent="1" source="T_pyh8g8CapDt7LugDOk-29" target="T_pyh8g8CapDt7LugDOk-30">
          <mxGeometry relative="1" as="geometry">
            <mxPoint x="444" y="322" as="sourcePoint" />
            <mxPoint x="444" y="420" as="targetPoint" />
            <Array as="points">
              <mxPoint x="320" y="440" />
              <mxPoint x="320" y="830" />
            </Array>
          </mxGeometry>
        </mxCell>
        <mxCell id="8HF2tz-6oqBhK90V2NST-59" value="&amp;lt;&amp;lt; include &amp;gt;&amp;gt;" style="edgeLabel;resizable=0;html=1;;align=center;verticalAlign=middle;" connectable="0" vertex="1" parent="8HF2tz-6oqBhK90V2NST-58">
          <mxGeometry relative="1" as="geometry" />
        </mxCell>
      </root>
    </mxGraphModel>
  </diagram>
</mxfile>
